
<svg class="my-svg" width="234" height="216" viewBox="0 0 234 216" fill="none" xmlns="http://www.w3.org/2000/svg">

<g filter="url(#filter0_d_1_5)">
<path d="M49.4298 2.02269C46.9017 5.141 45.7525 12.4733 45.8292 25.1151C45.8292 36.2399 45.9058 36.7455 49.0468 46.859C50.8088 52.5899 52.0346 57.731 51.7281 58.2366C50.3492 60.5964 50.0427 83.436 51.1153 97.4263C51.5749 104 52.1112 106.613 53.2603 108.214C55.2522 111.079 62.76 115.041 69.6549 116.979C72.7959 117.822 75.6305 118.749 75.8603 119.002C76.0902 119.339 76.2434 124.311 76.1668 130.126C75.9369 142.347 75.1708 144.791 69.5017 150.943C67.5864 153.05 66.0542 155.157 66.0542 155.747C66.0542 156.927 65.2881 156.759 56.478 154.062C50.2725 152.123 44.0671 151.786 42.6881 153.303C42.3051 153.724 41.2325 154.062 40.2366 154.062C39.2407 154.062 38.2447 154.567 38.0915 155.157C37.7851 155.831 35.9464 156.169 32.882 156.253C30.2773 156.253 26.4468 156.927 24.3017 157.686C22.2332 158.444 17.4068 159.624 13.7295 160.382C4.15322 162.152 4 162.321 4 168.642C4 171.592 4.45966 174.626 4.99593 175.384C5.45559 176.143 11.278 178.84 17.7898 181.368C24.3017 183.896 35.7932 188.447 43.301 191.481C76.9329 205.219 83.981 208 85.8963 208C86.9688 208 92.4081 206.904 97.8475 205.556C103.363 204.292 114.165 201.763 121.98 199.994C129.794 198.224 136.612 196.285 137.225 195.695C137.838 195.105 138.298 192.746 138.374 189.88L138.451 185.076L132.705 182.548C129.564 181.199 121.826 178.165 115.544 175.89C109.262 173.614 103.593 171.339 102.904 170.917C101.831 170.243 101.831 170.075 103.21 169.569C107.654 167.883 115.621 163.754 118.762 161.562C122.976 158.613 123.512 158.613 125.274 160.888C126.117 161.984 127.189 162.405 128.032 162.068C128.951 161.815 130.637 162.405 132.322 163.754C133.931 164.934 135.999 165.861 136.919 165.861C138.911 165.861 140.519 167.63 139.753 168.895C138.604 170.58 129.028 178.334 128.568 177.912C128.338 177.575 128.108 176.648 128.108 175.637C128.108 174.457 127.879 174.204 127.342 174.794C126.117 176.143 127.189 178.165 129.947 179.767C132.016 181.031 133.471 181.199 138.527 180.694C141.822 180.357 150.938 179.851 158.753 179.429C173.462 178.755 175.99 178.25 180.969 174.288C182.655 173.024 183.574 172.771 184.57 173.277C185.336 173.783 189.933 174.12 194.836 174.204C203.569 174.204 203.876 174.204 209.009 171.254C213.299 168.81 214.908 168.305 217.513 168.642C221.113 169.063 221.956 168.642 220.807 167.125C220.194 166.366 220.347 165.945 221.19 165.524C221.803 165.271 222.339 164.765 222.339 164.344C222.339 163.501 217.206 161.647 215.061 161.647C214.372 161.647 213.222 160.888 212.533 159.961C211.767 159.034 209.698 157.938 207.783 157.517C204.336 156.843 204.336 156.843 206.634 156.169C215.827 153.472 224.484 143.78 228.085 132.065C229.77 126.755 230 124.48 230 114.366C230 103.579 229.847 102.146 227.625 94.8979C225.097 86.6386 222.186 79.8963 217.053 70.2885C215.367 67.0859 213.759 63.2934 213.452 61.8606C212.609 57.4781 210.081 51.7472 207.936 49.3031C205.408 46.4376 201.118 46.1005 198.896 48.7974C195.525 52.9271 198.973 66.0746 207.094 79.8963C219.734 101.303 220.73 125.07 209.622 138.133C205.868 142.431 202.344 144.875 198.513 145.887C196.598 146.392 196.445 146.224 195.296 141.167C194.606 138.301 193.84 134.256 193.61 132.149C192.767 125.828 190.316 117.653 187.711 112.681C184.8 107.287 182.732 104.506 177.752 99.5332C174.841 96.6677 174.381 95.825 175.224 95.0664C175.837 94.4765 176.526 93.2123 176.833 92.2852C177.062 91.2739 178.671 89.0827 180.28 87.3971C181.889 85.7115 183.268 83.8574 183.268 83.3517C183.268 82.7617 181.965 81.7504 180.433 81.0762C177.522 79.7277 172.083 80.0648 169.325 81.6661C168.099 82.4246 167.946 82.0032 167.946 77.1151C167.946 69.9514 167.103 69.1086 162.123 71.8898C160.055 73.0697 158.293 73.9968 158.293 73.9968C158.216 73.9968 157.067 71.5527 155.765 68.5186C152.7 61.7763 151.015 60.5122 148.563 63.2934C147.644 64.389 146.495 65.9903 145.959 66.9173C145.116 68.4344 145.039 68.3501 145.039 66.2431C144.963 63.7147 149.253 56.2982 150.785 56.2982C151.628 56.2982 156.454 50.9044 156.454 49.893C156.454 49.6402 155.535 48.1232 154.462 46.6062C152.624 43.9092 152.547 43.5721 153.543 40.5381C154.156 38.4311 154.539 33.2901 154.539 25.9579C154.539 13.1475 153.237 6.57374 150.019 3.28687C148.18 1.34846 148.027 1.34846 145.576 2.69692C144.197 3.37115 140.289 6.48946 136.919 9.5235C133.548 12.4733 128.032 16.4344 124.584 18.2885C121.214 20.1426 117.306 22.671 116.004 23.8509C113.859 25.8736 113.323 25.9579 110.718 25.1151C106.045 23.6823 93.7105 23.1767 87.9647 24.1037L82.602 25.0308L80.0739 21.9125C77.8522 19.2156 77.3925 18.9627 76.6264 20.1426C75.8603 21.4068 75.4773 21.3225 72.6427 19.2156C70.8807 17.9514 67.1268 15.2545 64.2922 13.316C61.4576 11.2934 57.2441 7.50081 55.099 4.80389L51.1153 -3.8445e-06L49.4298 2.02269ZM56.4014 8.51215C59.1593 11.4619 61.4576 14.2431 61.5342 14.6645C61.6108 15.9287 75.8603 23.2609 76.5498 22.5024C77.0095 21.9968 78.0054 22.5867 79.0014 23.7666L80.7634 25.8736L77.0095 27.9805C74.941 29.0762 72.7959 30.6775 72.1831 31.436C71.5702 32.1945 73.4854 31.436 76.4732 29.5818L81.7593 26.3793H96.0854C103.9 26.3793 110.641 26.7164 111.024 27.0535C111.331 27.4749 110.718 28.6548 109.645 29.6661C107.347 31.8574 105.508 35.1442 106.198 35.9028C106.504 36.1556 107.271 35.4814 107.96 34.3857C110.105 31.0146 113.706 26.7164 114.089 27.1378C114.319 27.3063 116.234 26.295 118.379 24.778C120.601 23.2609 123.972 21.154 125.963 20.2269C127.879 19.2156 132.935 15.5916 137.225 12.0519C141.515 8.59643 144.963 6.15235 144.963 6.65802C144.963 7.16369 142.281 10.7034 138.987 14.4959C132.016 22.3339 130.637 24.4408 126.576 33.1216C123.205 40.201 122.363 43.235 122.593 48.6288C122.746 51.4943 123.282 52.7585 124.891 54.3598C127.802 57.141 130.254 56.8039 134.161 53.0956L137.532 49.893L136.153 46.7747C134.85 43.7407 134.85 43.5721 136.153 41.9708C136.919 41.0438 137.302 40.2852 136.995 40.2852C136.689 40.2852 136.842 39.5267 137.302 38.684C137.685 37.7569 137.761 36.8298 137.455 36.577C137.148 36.4084 136.382 37.3355 135.846 38.684C135.31 40.1167 134.084 41.8023 133.088 42.4765L131.326 43.7407L132.935 45.7634C137.072 50.6515 137.072 51.2415 132.935 51.2415C130.713 51.2415 130.407 51.4943 130.407 53.4327C130.407 54.6126 130.177 55.4554 129.871 55.2869C129.487 55.034 128.108 54.3598 126.806 53.7699C124.201 52.5057 123.588 50.9887 125.197 49.893C125.81 49.4716 125.734 49.0502 124.891 48.376C123.818 47.5332 123.972 46.5219 126.117 39.4425C129.334 28.6548 132.475 23.4295 141.439 13.316C150.096 3.70826 150.249 3.70826 152.241 12.0519C153.773 18.5413 153.696 32.0259 152.164 39.5267C150.938 45.342 150.938 45.5105 152.547 47.1118C153.466 48.0389 154.156 49.1345 154.156 49.5559C154.156 50.5673 149.176 56.2982 148.257 56.2982C147.951 56.2982 146.112 58.9951 144.197 62.1977C142.281 65.4846 140.289 68.0972 139.83 68.0972C138.604 68.0972 138.527 72.2269 139.677 73.9968C140.289 74.9238 140.366 74.671 139.983 72.9011C139.677 71.047 139.906 70.1199 141.209 68.8558C142.128 68.013 143.201 67.2545 143.584 67.2545C144.426 67.2545 143.507 80.8233 142.588 81.919C142.205 82.3404 141.745 81.1605 141.439 79.1378C141.132 77.1993 140.749 75.7666 140.596 76.0194C140.366 76.2723 140.673 79.0535 141.132 82.2561C142.205 88.9141 141.592 92.3695 138.068 98.0162C135.769 101.724 125.58 110.237 120.754 112.428C117.23 114.113 110.105 114.956 109.416 113.776C108.496 112.091 111.101 110.827 113.553 111.754C114.778 112.259 115.851 112.344 115.851 111.922C115.851 111.501 114.625 110.742 113.169 110.237C110.871 109.394 110.488 108.888 110.488 106.613C110.412 100.966 105.049 91.5267 99.6861 87.9028C96.9281 85.9643 96.7749 85.8801 93.7105 87.2285C91.9485 87.987 90.5695 88.9141 90.5695 89.3355C90.5695 89.7569 90.8759 89.9254 91.259 89.5883C91.642 89.3355 91.4122 90.3468 90.7227 91.8639C89.88 93.718 89.3437 97.2577 89.1905 102.736L88.8841 110.827L92.638 113.861C94.6298 115.462 97.3878 116.979 98.6136 117.232C99.9159 117.4 96.0854 117.653 90.1864 117.653C79.5376 117.822 69.5783 116.136 65.1349 113.523C63.5261 112.596 63.5261 112.512 65.518 111.332C66.6671 110.742 67.7397 109.225 68.0461 107.877C68.2759 106.613 68.5824 105.096 68.8122 104.506C69.1186 103.241 65.7478 92.7066 63.6027 88.4927C61.9939 85.4587 58.9295 81.5818 58.0102 81.5818C57.7803 81.5818 56.861 83.2674 56.0183 85.3744C54.8692 88.1556 54.4861 90.8525 54.5627 94.8979C54.7159 102.652 54.6393 103.494 53.8732 103.494C52.2644 103.494 51.2685 73.4911 52.5708 63.4619C52.9539 60.5964 54.0264 57.0567 55.0224 55.2026C56.861 52.0843 56.7844 50.7358 54.8692 53.517C54.0264 54.8655 53.72 54.6126 52.2644 50.9887C49.8129 44.9206 47.5912 34.8071 47.5146 28.9919C47.2081 16.2658 48.9702 3.20259 51.0386 3.20259C51.1919 3.20259 53.5668 5.64667 56.4014 8.51215ZM207.553 51.0729C209.009 53.0113 211.384 58.9109 212.38 63.1248C212.839 64.9789 214.218 68.3501 215.444 70.5413C216.67 72.7326 218.585 76.778 219.734 79.5592C220.807 82.2561 222.416 86.1329 223.182 88.1556C227.625 98.9433 228.698 104.421 228.621 114.535C228.544 123.3 228.238 125.238 226.093 131.643C224.024 137.88 222.952 139.818 218.508 145.044C215.674 148.331 212.226 151.786 211.001 152.629C208.702 154.062 208.626 154.062 207.783 152.46C205.944 148.499 207.094 144.117 211.537 138.891C213.222 136.869 215.597 132.739 216.746 129.705C218.738 124.648 218.892 123.3 218.815 114.029C218.815 107.708 218.432 102.652 217.742 100.545C217.129 98.6904 216.67 96.752 216.593 96.3306C216.517 95.825 215.904 94.0551 215.214 92.3695C214.525 90.5997 213.912 88.9141 213.912 88.4927C213.912 88.0713 212.609 85.8801 211.077 83.6888C207.247 78.0421 200.428 63.2091 199.433 58.0681C198.59 53.6013 199.203 50.1459 201.041 49.2188C202.727 48.4603 206.404 49.4716 207.553 51.0729ZM152.854 65.7374C153.926 67.2545 155.305 69.7828 156.071 71.3841L157.374 74.3339L154.079 77.705C152.241 79.6434 149.559 82.6775 148.027 84.4473C145.805 87.3128 146.188 87.06 150.479 83.0146C154.999 78.8006 162.2 73.9968 163.885 73.9968C164.192 73.9968 162.047 76.6094 159.136 79.8963C156.224 83.0989 154.156 85.7958 154.616 85.7958C155.612 85.7958 163.502 76.778 164.805 74.1653C165.801 72.0583 165.724 71.9741 162.813 73.154C160.821 73.9968 160.744 73.9125 162.2 72.7326C163.043 71.9741 164.422 71.5527 165.264 71.637C166.567 71.8898 166.797 72.6483 167.026 77.705C167.256 83.1831 167.333 83.436 168.942 82.846C171.853 81.8347 177.752 81.329 179.744 81.919C182.502 82.6775 182.195 84.6159 179.131 86.8071C177.445 87.987 176.22 89.8412 175.683 91.6953C175.147 93.8023 174.458 94.7293 173.385 94.7293C172.542 94.7293 172.006 94.4765 172.159 94.2237C172.313 93.8865 170.091 92.3695 167.18 90.8525C162.277 88.2399 161.587 88.0713 156.684 88.6613C153.849 88.9141 150.632 89.4198 149.559 89.6726C147.951 90.0097 148.104 89.7569 150.325 88.3241C152.394 86.9757 152.547 86.7229 151.092 87.1442C149.329 87.6499 144.963 90.7682 144.963 91.5267C144.963 91.6953 146.725 91.6953 148.793 91.4425C154.003 90.9368 153.466 92.1167 146.801 96.0778C143.89 97.8476 141.822 99.2804 142.128 99.2804C143.277 99.2804 151.704 94.3079 153.926 92.201C155.228 91.0211 157.067 90.0097 157.986 90.0097C161.204 90.0097 167.946 92.7066 170.474 94.8979C179.591 103.073 186.868 111.838 185.336 112.934C184.647 113.439 184.647 113.608 185.413 113.608C185.949 113.608 186.179 113.945 185.949 114.451C185.719 114.872 185.796 115.293 186.256 115.293C187.328 115.293 191.542 130.042 192.461 137.037C192.921 140.493 193.763 143.78 194.3 144.454C195.832 146.139 196.521 150.269 195.908 154.567C195.296 159.54 191.235 164.175 184.647 167.546C181.812 168.979 178.978 171.17 178.288 172.266C176.526 175.3 171.393 177.66 166.567 177.66C162.66 177.66 162.506 177.575 163.043 175.721C163.349 174.71 163.579 173.446 163.579 173.024C163.579 172.519 163.349 171.339 163.043 170.243C162.583 168.726 162.736 168.389 164.039 168.389C164.958 168.389 165.647 168.052 165.647 167.63C165.647 166.535 163.579 165.861 162.2 166.366C161.587 166.703 160.515 166.451 159.978 165.861C159.136 165.186 157.757 165.102 154.769 165.692C152.547 166.198 149.483 166.366 148.027 166.198C145.576 165.861 145.805 166.198 148.793 167.209C149.559 167.546 149.176 168.389 147.261 170.412C145.805 171.929 143.507 174.541 142.128 176.227C139.983 179.008 139.294 179.345 136.229 179.345C134.314 179.345 132.705 179.008 132.705 178.587C132.705 178.165 134.544 176.311 136.842 174.373C139.753 171.929 141.056 170.159 141.285 168.473C141.592 166.282 141.285 165.945 138.068 164.681C136.076 163.922 133.624 162.658 132.628 161.815C131.633 161.057 130.33 160.382 129.717 160.214C124.508 159.371 123.742 157.854 127.266 155.494C128.415 154.736 130.713 152.46 132.322 150.522C133.854 148.499 136.229 145.634 137.455 144.117C138.757 142.684 139.447 141.42 138.987 141.42C138.068 141.42 134.697 144.959 131.096 149.848C128.415 153.472 119.375 160.13 113.246 162.911L110.488 164.175L109.033 161.057C108.19 159.287 106.504 156.59 105.202 155.073L102.904 152.376L104.742 150.185C105.738 149.005 107.194 146.392 107.883 144.37C109.033 140.998 113.553 136.363 115.698 136.363C116.081 136.363 117 135.605 117.766 134.677C119.145 132.992 119.145 132.908 117.536 130.464C115.544 127.514 115.468 127.092 117.077 127.092C121.137 127.092 131.02 119.17 136.229 111.754C137.072 110.574 139.523 102.314 141.132 95.235C141.668 93.128 142.435 91.6953 143.047 91.6953C143.66 91.6953 144.197 91.1053 144.197 90.3468C144.197 89.6726 143.89 89.3355 143.431 89.5883C142.511 90.2626 142.435 89.8412 143.431 87.06C143.814 85.8801 144.58 81.4133 145.039 77.1151C145.652 71.3841 146.342 68.5186 147.721 66.1588C148.717 64.4733 149.866 63.0405 150.325 63.0405C150.708 63.0405 151.858 64.3047 152.854 65.7374ZM61.6875 87.9028C62.76 90.0097 64.3688 93.8023 65.2115 96.3306C68.8888 107.118 65.4414 114.619 60.1553 107.287C59.0061 105.686 57.6271 104.337 57.1675 104.337C55.8651 104.337 56.1715 86.47 57.5505 84.7002C58.8529 82.9303 59.3892 83.2674 61.6875 87.9028ZM98.1539 88.6613C103.593 91.7796 109.186 101.472 108.803 107.118C108.573 110.068 108.113 110.911 105.662 112.765C102.291 115.293 97.6176 115.293 94.2468 112.681C93.1742 111.754 91.8719 111.079 91.3356 111.079C90.7993 111.079 90.5695 110.574 90.7993 109.984C91.0292 109.31 90.8759 107.034 90.4163 104.843C89.497 99.8703 90.6461 94.1394 93.3275 90.1783C95.5492 87.06 95.3959 87.1442 98.1539 88.6613ZM136.765 105.686C133.548 112.934 127.496 119.76 121.06 123.3C118.073 124.901 115.008 126.25 114.242 126.25C113.323 126.25 112.403 127.345 111.714 129.115C109.799 134.088 108.42 133.835 102.291 127.682C100.222 125.575 98.0773 124.227 96.6983 124.143C95.3959 123.974 94.4 124.143 94.4 124.48C94.4 125.66 87.3519 133.835 86.739 133.413C85.8197 132.823 80.6102 121.446 80.6102 120.097C80.6102 119.339 82.6786 119.17 89.1905 119.423C97.0814 119.676 101.218 119.17 112.327 116.895C114.395 116.473 116.311 116.305 116.54 116.558C116.77 116.895 116.234 118.665 115.238 120.519C114.319 122.457 113.706 124.143 113.859 124.395C114.472 124.985 117.383 119.254 117.383 117.4C117.46 116.136 118.992 114.872 123.665 112.428C127.802 110.237 131.326 107.54 134.161 104.421C136.536 101.809 138.527 99.9546 138.681 100.292C138.834 100.629 137.991 103.073 136.765 105.686ZM79.9207 121.024C80.7634 123.553 79.3078 123.131 77.6224 120.434C76.5498 118.58 76.5498 118.496 77.8522 118.749C78.6183 118.917 79.6142 119.929 79.9207 121.024ZM107.883 133.498C109.492 134.003 110.258 133.666 111.407 132.149C112.174 131.138 112.786 129.705 112.786 128.947C112.786 128.019 113.399 128.272 115.085 130.042C116.387 131.391 117.383 132.739 117.383 133.076C117.383 133.329 115.698 134.425 113.629 135.352C111.561 136.279 109.262 138.049 108.573 139.229C106.504 142.684 105.202 141.925 102.521 135.267C98.3071 125.154 98.3071 124.395 102.291 128.947C104.206 131.138 106.734 133.16 107.883 133.498ZM83.8278 130.464C85.6664 135.352 87.2753 135.689 90.3397 131.728C91.7186 129.958 92.8678 129.031 92.8678 129.621C92.8678 130.969 87.6583 141.42 86.9688 141.42C86.2793 141.42 77.5458 131.475 77.5458 130.632C77.5458 130.042 81.2997 127.177 82.1424 127.092C82.3722 127.092 83.1383 128.609 83.8278 130.464ZM98.6902 131.981C99.4563 134.172 100.835 137.374 101.831 139.06L103.593 142.178L101.065 142.6C99.7627 142.853 97.6176 143.19 96.3153 143.274C94.4 143.527 93.4041 144.538 90.4163 149.426C88.501 152.629 86.5092 155.41 86.0495 155.579C85.5898 155.747 84.9003 154.989 84.5173 153.893C83.8278 152.039 83.7512 152.039 83.7512 153.724C83.6746 155.41 83.4447 155.326 81.0698 152.713C79.6142 151.112 77.7756 149.848 76.8563 149.848C75.9369 149.848 75.2475 149.426 75.2475 149.005C75.2475 147.488 79.6142 148.078 81.6827 149.932C82.9851 151.028 83.5214 151.196 83.2149 150.438C82.7553 149.005 79.6142 147.319 77.5458 147.319C75.7071 147.319 75.6305 146.561 77.1627 143.442C77.7756 142.094 78.3119 140.156 78.3119 139.06C78.3119 136.363 79.7675 136.784 83.0617 140.324C85.6664 143.105 86.1261 143.274 87.7349 142.347C89.497 141.335 92.8678 134.93 94.017 130.464C94.6298 128.272 95.8556 126.924 96.7749 127.598C97.0814 127.767 97.9241 129.789 98.6902 131.981ZM105.892 145.549C105.892 147.235 99.7627 152.292 96.0854 153.556C91.7953 155.157 86.739 160.467 86.739 163.332C86.739 165.018 86.6624 165.018 84.3641 163.754C82.219 162.489 81.8359 162.489 80.6868 163.669C78.6183 165.692 72.4895 166.872 70.421 165.692C65.2881 162.489 64.7519 159.624 68.4292 154.062C70.6508 150.69 70.9573 150.522 73.7153 150.943C79.078 151.702 84.3641 157.77 83.0617 161.562C82.8319 162.405 83.5214 162.068 84.7471 160.804C87.4285 158.107 94.4 147.319 94.4 145.887C94.4 145.044 95.9322 144.791 100.146 144.791C103.287 144.791 105.892 145.128 105.892 145.549ZM206.404 149.005C206.404 150.859 206.481 152.882 206.557 153.387C206.634 154.652 202.267 156.506 199.203 156.506C197.134 156.59 197.058 156.421 197.058 152.545V148.583L200.735 147.235C206.098 145.212 206.251 145.212 206.404 149.005ZM52.6475 154.062C52.9539 154.652 51.958 154.82 49.8129 154.483C46.5953 154.146 46.5953 154.146 49.2 154.904C50.6556 155.326 52.7241 155.579 53.7966 155.326C54.8692 155.157 57.6271 155.663 59.9254 156.421C63.3729 157.601 64.2156 158.276 64.3688 159.961C64.522 161.141 65.2115 162.742 65.8244 163.501C66.9736 164.934 66.8969 165.018 65.518 165.018C64.6753 165.018 62.8366 164.596 61.4576 164.006C58.8529 163.079 58.8529 163.079 60.7681 162.237C63.3729 161.141 61.2278 160.467 58.3932 161.562C56.7078 162.152 55.3288 162.152 53.2603 161.31C50.1193 160.13 50.4258 159.624 54.9458 158.697L58.0102 158.023L54.9458 157.348C47.438 155.747 43.9139 154.652 44.2969 153.977C44.8332 152.882 52.0346 153.05 52.6475 154.062ZM103.67 156.843C106.045 158.95 107.424 161.731 107.424 164.428C107.424 165.945 106.428 166.788 102.674 168.642C99.9925 169.906 96.6983 170.917 95.3193 170.917C91.8719 170.917 88.4244 168.81 87.8115 166.366C87.2753 163.838 89.4203 158.613 91.642 157.18C97.0814 153.809 100.069 153.724 103.67 156.843ZM39.3173 158.023L43.4542 159.371L40.16 160.467C37.1722 161.478 36.4061 161.394 32.499 159.708L28.1322 157.854L31.5797 157.348C33.4949 157.096 35.0271 156.759 35.1037 156.759C35.1037 156.674 37.019 157.18 39.3173 158.023ZM50.3492 157.348C51.8047 158.023 51.8047 158.023 50.1193 158.613C48.0508 159.371 43.301 158.613 42.6881 157.433C42.1519 156.421 48.1275 156.421 50.3492 157.348ZM208.549 158.781C209.852 159.034 211.231 159.961 211.614 160.804C211.997 161.647 213.605 162.574 215.214 162.827C216.823 163.164 218.815 163.669 219.581 163.922C220.96 164.344 220.96 164.428 219.734 165.186C219.045 165.608 218.662 166.282 218.892 166.788C219.198 167.209 217.896 167.546 216.057 167.546C214.218 167.546 212.303 167.968 211.767 168.558C211.077 169.316 210.158 169.316 207.936 168.558C206.251 167.968 203.723 167.546 202.344 167.546C200.888 167.546 199.049 167.041 198.207 166.366C197.364 165.776 195.679 165.018 194.453 164.681C192.231 164.091 192.231 164.091 193.84 162.489C194.683 161.647 195.525 160.467 195.679 159.877C195.832 159.371 197.364 158.613 198.973 158.276C201.961 157.601 203.646 157.686 208.549 158.781ZM29.2814 160.045C31.3498 160.551 33.1119 161.225 33.1119 161.647C33.1119 162.489 25.4508 163.585 23.9186 162.995C23.3058 162.742 21.7736 162.068 20.4712 161.478L18.1729 160.467L21.2373 159.961C22.9227 159.624 24.5315 159.287 24.838 159.203C25.1444 159.203 27.1363 159.54 29.2814 160.045ZM51.8814 161.984L54.9458 162.995L51.0386 164.091C47.5912 165.018 46.5953 164.934 42.9946 163.585C39.0108 162.152 38.9342 162.068 41.1559 161.562C44.7566 160.72 48.5105 160.804 51.8814 161.984ZM19.322 162.658L21.8502 163.585L17.7898 164.765C14.1892 165.776 13.3464 165.776 10.2054 164.428C6.9878 163.079 6.91119 162.911 8.59661 162.405C11.661 161.478 16.5641 161.562 19.322 162.658ZM41.3092 164.259C45.2163 165.524 44.9864 166.282 40.3898 167.041C37.0956 167.63 27.7492 165.524 28.7451 164.512C29.2814 163.922 35.7166 162.658 36.9424 162.995C37.5553 163.079 39.5471 163.669 41.3092 164.259ZM28.8983 165.945L31.1966 166.872L26.9831 168.052C23.842 168.895 22.08 168.895 20.0881 168.22C15.6447 166.703 15.6447 166.366 20.4712 165.355C25.2976 164.428 25.2976 164.428 28.8983 165.945ZM60.8447 164.934C61.8407 165.355 63.2963 165.945 64.139 166.282C65.3647 166.788 64.7519 167.125 61.6875 168.052C58.3932 168.979 57.2441 168.979 55.1756 168.052C49.2 165.439 49.3532 165.608 52.2644 165.018C56.3247 164.091 58.9295 164.091 60.8447 164.934ZM9.89898 166.282C15.7214 167.799 22.3098 170.243 31.1966 174.204C34.1844 175.553 41.922 178.502 48.4339 180.947C60.1553 185.16 63.9858 186.677 76.7031 191.903C84.0576 194.853 85.36 195.021 91.259 193.335C93.6339 192.661 97.7708 191.65 100.529 191.144C103.287 190.554 106.504 189.964 107.73 189.712C109.952 189.206 109.952 189.206 109.492 192.746C109.262 194.768 108.879 196.538 108.649 196.791C108.037 197.465 88.1946 202.1 85.8197 202.1C83.3681 202.1 82.3722 201.679 59.1593 191.987C50.1193 188.194 35.5634 182.295 26.9064 178.84C10.0522 172.182 5.5322 170.243 5.5322 169.737C5.5322 168.136 7.21763 165.018 7.83051 165.439C8.21356 165.692 9.20949 166.113 9.89898 166.282ZM87.5051 168.389C89.0373 170.243 90.1864 171.929 89.9566 172.182C89.1905 172.94 85.6664 172.603 82.602 171.423C79.9207 170.412 79.7675 170.243 81.0698 169.316C82.2956 168.473 81.9892 168.389 79.461 168.81C77.7756 169.063 75.4773 168.979 74.4814 168.473C72.5661 167.63 72.5661 167.63 74.8644 167.546C76.1668 167.546 78.2353 166.956 79.461 166.282C83.1383 164.428 84.5173 164.849 87.5051 168.389ZM196.904 166.956C197.824 167.462 198.513 168.305 198.283 168.895C198.13 169.4 198.36 170.327 198.82 170.833C199.279 171.339 199.509 171.929 199.279 172.097C198.513 172.94 186.026 172.687 184.187 171.844C183.344 171.507 185.796 168.895 188.707 167.125C192.078 165.102 193.534 165.102 196.904 166.956ZM57.4739 170.243L66.9736 173.867L62.9898 174.963C59.0827 176.058 58.6997 175.974 49.4298 172.519C44.2203 170.665 40.0834 168.895 40.3132 168.642C40.6963 168.136 45.0631 166.956 46.9017 166.788C47.5146 166.703 52.341 168.305 57.4739 170.243ZM73.7153 169.653C76.4732 170.749 76.3966 170.833 71.4169 172.35C69.1953 173.024 67.8163 172.856 64.522 171.423L60.3085 169.653L64.139 168.726C68.0461 167.715 68.9654 167.799 73.7153 169.653ZM50.962 174.457L66.8969 180.609L62.3769 181.705L57.7803 182.801L47.5146 178.924C37.7851 175.216 32.4224 173.024 27.3661 170.833L25.0678 169.822L26.9831 169.232C31.6563 167.63 35.1803 168.389 50.962 174.457ZM161.357 169.737C162.123 171.844 161.817 174.626 160.744 176.143C159.978 177.323 158.599 177.66 155.228 177.66C152.777 177.66 149.176 178.081 147.338 178.587C145.499 179.008 143.814 179.177 143.584 179.008C142.894 178.25 147.261 172.603 150.172 170.496C153.62 168.052 160.591 167.546 161.357 169.737ZM205.485 170.075C206.404 170.749 206.327 170.917 204.948 170.917C204.029 170.917 203.033 171.339 202.803 171.76C202.267 172.771 200.122 171.339 200.122 169.99C200.122 168.979 204.029 169.063 205.485 170.075ZM31.5797 181.874C38.5512 184.571 53.3369 190.554 64.522 195.274L84.9003 203.702L109.722 197.887C136.153 191.65 136.536 191.566 136.536 192.746C136.536 193.925 131.786 196.032 126.959 196.959C122.822 197.718 98.6136 203.28 94.7831 204.292C93.9403 204.545 91.1058 204.966 88.501 205.219C84.3641 205.64 82.7553 205.303 77.3925 203.196C73.8685 201.763 66.0542 198.645 59.9254 196.201C53.7966 193.757 47.821 191.313 46.5186 190.723C45.2929 190.133 42.9946 189.122 41.539 188.616C29.2814 183.896 25.6807 182.464 19.0922 179.851C9.13288 175.89 6.29831 174.373 6.29831 172.94C6.29831 172.097 7.90712 172.434 12.6569 174.373C16.1044 175.806 24.6081 179.177 31.5797 181.874ZM83.5214 173.193L87.8881 174.626L84.8237 175.637C80.5336 177.07 79.2312 177.07 74.8644 175.216C71.0339 173.614 71.0339 173.614 73.3322 173.024C74.6346 172.687 76.0136 172.35 76.3966 172.182C77.9288 171.592 79.3078 171.76 83.5214 173.193ZM104.359 173.446C106.045 174.373 107.424 174.963 107.424 174.794C107.424 174.541 108.496 174.794 109.799 175.3C111.024 175.806 111.944 176.311 111.791 176.48C111.178 177.238 100.529 179.092 100.529 178.502C100.529 178.165 98.1539 176.985 95.1661 175.89C92.2549 174.794 90.0332 173.783 90.1864 173.53C90.4163 173.361 92.7146 172.94 95.3193 172.603C98.0007 172.266 100.452 171.929 100.759 171.844C101.065 171.844 102.751 172.519 104.359 173.446ZM74.1749 176.564L77.9288 177.912L73.562 179.008C69.7315 180.019 68.7356 179.935 65.1349 178.587C61.2278 177.07 61.1512 176.648 64.9051 175.721C68.0461 174.963 70.4976 175.131 74.1749 176.564ZM95.6258 177.407C97.6942 178.165 98.9966 178.84 98.6136 179.008C89.5736 181.115 89.497 181.115 85.5898 179.429C81.7593 177.828 81.7593 177.828 84.0576 177.238C85.36 176.901 86.739 176.564 87.122 176.395C88.9607 175.721 92.1017 176.058 95.6258 177.407ZM125.121 180.694C135.157 184.486 140.136 189.29 135.616 190.639C132.169 191.65 131.709 191.313 132.245 188.279C132.705 185.498 132.628 185.413 128.721 183.643C126.5 182.716 122.286 180.947 119.298 179.851C116.387 178.671 114.702 177.744 115.621 177.744C116.464 177.66 120.754 179.008 125.121 180.694ZM120.141 181.368C130.79 185.329 131.326 185.666 131.02 188.869C130.79 191.144 130.407 191.65 127.879 192.24C126.27 192.661 124.814 192.83 124.661 192.661C124.508 192.493 124.661 190.976 124.967 189.374L125.58 186.34L116.54 182.716C111.484 180.694 107.424 178.924 107.424 178.755C107.424 177.66 113.706 178.924 120.141 181.368ZM84.4407 180.609C87.2753 181.705 87.122 181.874 81.6827 183.306C79.3078 183.896 77.699 183.728 74.7878 182.632C71.0339 181.199 71.0339 181.199 73.3322 180.609C74.6346 180.272 76.0136 179.935 76.3966 179.767C78.082 179.177 81.9125 179.514 84.4407 180.609ZM110.871 181.536C125.58 187.605 124.508 186.93 123.972 189.796C123.359 193.083 122.822 193.673 119.375 194.515L116.54 195.19L117.077 192.156C117.383 190.386 117.613 188.7 117.689 188.279C117.689 187.857 114.089 186.003 109.492 184.149C104.283 181.958 101.601 180.441 102.214 180.019C103.746 179.008 105.125 179.177 110.871 181.536ZM102.444 182.716C104.589 183.559 105.738 184.402 105.125 184.486C101.755 184.908 98.2305 184.571 95.5492 183.559C92.9444 182.632 92.7146 182.379 94.017 181.789C96.4685 180.778 98.3837 180.947 102.444 182.716ZM72.1064 182.801C73.4088 183.306 74.4814 183.981 74.4814 184.318C74.4814 184.571 72.8725 185.245 70.8807 185.75C67.8929 186.509 66.5905 186.425 63.3729 185.245C59.3125 183.643 59.3125 183.728 64.9051 182.464C67.7397 181.789 69.6549 181.874 72.1064 182.801ZM94.017 185.076C92.9444 186.256 86.3559 187.52 84.9003 186.93C83.981 186.509 82.602 185.919 81.7593 185.582C79.078 184.571 88.118 182.885 91.5654 183.812C93.1742 184.233 94.2468 184.823 94.017 185.076ZM81.9125 187.015C84.0576 187.942 84.0576 187.942 80.2271 189.122C76.8563 190.049 75.9369 190.049 72.5661 188.784L68.7356 187.436L72.5661 186.425C76.5498 185.329 78.3119 185.413 81.9125 187.015ZM113.016 186.509C116.464 188.11 116.847 188.7 116.157 192.408C115.774 194.853 115.238 195.442 112.94 196.201C111.407 196.622 110.105 196.875 110.028 196.791C109.875 196.707 110.182 194.937 110.565 192.914C110.948 190.891 111.024 188.869 110.641 188.447C110.335 188.11 106.811 188.532 102.904 189.459C97.0047 190.891 95.3193 191.06 92.7912 190.217C91.1824 189.627 89.8034 188.869 89.8034 188.532C89.8034 187.605 99.9925 185.835 102.521 186.34C103.746 186.593 105.585 187.015 106.658 187.352C108.496 187.942 108.496 187.942 107.041 186.677C105.585 185.329 105.585 185.329 107.883 185.245C109.186 185.245 111.561 185.835 113.016 186.509ZM90.1864 190.301L93.2508 191.818L91.1824 192.324C89.9566 192.577 88.118 192.998 87.0454 193.251C85.9729 193.504 83.2915 193.083 81.0698 192.324L77.1627 190.807L80.5336 190.133C82.3722 189.796 84.0576 189.29 84.2875 189.037C84.977 188.279 87.0454 188.7 90.1864 190.301Z" fill="#A495FE"/>
<path d="M129.794 34.3015C129.028 34.8072 129.487 35.1443 131.173 35.5657C132.552 35.8185 134.237 36.0713 134.927 36.0713C135.923 35.9871 135.923 35.8185 134.697 34.8072C133.012 33.3744 131.326 33.2059 129.794 34.3015Z" fill="#A495FE"/>
<path d="M63.7559 39.021C62.3769 40.6223 61.381 42.1394 61.5342 42.3922C61.7641 42.5608 63.143 41.4651 64.522 39.8638C65.901 38.2625 66.8969 36.7455 66.7437 36.4927C66.5139 36.3241 65.1349 37.4198 63.7559 39.021Z" fill="#A495FE"/>
<path d="M115.315 106.613C116.617 106.865 117.383 107.54 117.383 108.382C117.383 109.647 117.536 109.647 118.149 108.551C119.375 106.444 119.068 106.023 116.081 106.107C113.706 106.276 113.553 106.36 115.315 106.613Z" fill="#A495FE"/>
<path d="M72.6427 109.562C72.8725 109.9 73.4088 109.984 73.8685 109.731C74.2515 109.394 75.4773 109.647 76.4732 110.321C77.9288 111.164 78.5417 111.164 79.2312 110.405C80.1505 109.394 80.0739 109.31 74.4813 108.972C73.2556 108.888 72.4129 109.141 72.6427 109.562Z" fill="#A495FE"/>
<path d="M146.418 137.712C145.959 139.06 145.422 143.358 145.193 147.319C144.809 155.242 145.959 159.034 149.636 161.562C151.168 162.742 151.092 162.405 149.1 159.793C147.644 157.938 146.418 155.326 146.112 153.219C145.499 149.426 146.188 141.588 147.338 138.217C147.721 137.037 147.874 135.942 147.721 135.689C147.491 135.436 146.878 136.363 146.418 137.712Z" fill="#A495FE"/>
<path d="M43.5309 95.9092C43.9139 96.3306 45.4461 96.9206 46.9017 97.1734L49.5831 97.5948L47.2848 96.4149C44.6034 94.8979 42.3817 94.645 43.5309 95.9092Z" fill="#A495FE"/>
<path d="M44.4502 103.241C43.6841 103.41 43.0712 104 43.0712 104.421C43.0712 105.348 43.6075 105.348 46.9017 103.916C49.2 102.904 49.2766 102.82 47.6678 102.82C46.5953 102.82 45.1397 102.989 44.4502 103.241Z" fill="#A495FE"/>
<path d="M45.3224 109.366C44.7258 109.897 44.4558 110.721 44.6477 111.092C45.0698 111.906 45.5412 111.639 47.7843 108.734C49.3439 106.698 49.3729 106.585 47.9588 107.389C47.016 107.924 45.8133 108.799 45.3224 109.366Z" fill="#A495FE"/>
<path d="M122.317 83.26C122.317 90.0347 120.162 90.8816 120.054 84.1068C120.054 81.5663 119.731 80.5501 119.407 81.7357C119.192 82.7519 118.437 83.26 117.791 82.7519C117.252 82.0744 117.467 83.5987 118.545 85.9699C119.838 89.1879 121.239 90.2041 123.718 90.2041C125.658 90.0347 126.52 89.696 125.873 89.3572C124.257 88.5104 123.934 80.3807 125.55 80.3807C126.197 80.3807 126.628 79.7033 126.628 78.8564C126.628 77.8402 125.658 77.3321 124.472 77.5015C122.748 77.6708 122.317 78.8564 122.317 83.26Z" fill="#A495FE"/>
<path d="M121.994 114.295C121.34 113.903 118.846 113.43 116.509 113.287L112.21 113.067L115.984 114.072C120.403 115.384 123.954 115.469 121.994 114.295Z" fill="#A495FE"/>
<path d="M119.738 107.05C120.935 106.825 121.843 106.19 121.797 105.77C121.696 104.845 120.846 104.885 115.776 106.562C112.24 107.743 112.127 107.832 114.68 107.712C116.381 107.631 118.672 107.354 119.738 107.05Z" fill="#A495FE"/>
<path d="M117.688 101.007C118.577 100.433 118.916 99.5901 118.571 99.2351C117.813 98.454 117.094 98.7564 113.851 101.821C111.599 103.97 111.565 104.084 113.721 103.177C115.158 102.572 116.971 101.609 117.688 101.007Z" fill="#A495FE"/>
</g>
<defs>
<filter id="filter0_d_1_5" x="0" y="-3.8147e-06" width="234" height="216" filterUnits="userSpaceOnUse" color-interpolation-filters="sRGB">
<feFlood flood-opacity="0" result="BackgroundImageFix"/>
<feColorMatrix in="SourceAlpha" type="matrix" values="0 0 0 0 0 0 0 0 0 0 0 0 0 0 0 0 0 0 127 0" result="hardAlpha"/>
<feOffset dy="4"/>
<feGaussianBlur stdDeviation="2"/>
<feComposite in2="hardAlpha" operator="out"/>
<feColorMatrix type="matrix" values="0 0 0 0 0 0 0 0 0 0 0 0 0 0 0 0 0 0 0.25 0"/>
<feBlend mode="normal" in2="BackgroundImageFix" result="effect1_dropShadow_1_5"/>
<feBlend mode="normal" in="SourceGraphic" in2="effect1_dropShadow_1_5" result="shape"/>
</filter>
</defs>
</svg>
