<svg width="522" height="135" viewBox="0 0 522 135" fill="none" xmlns="http://www.w3.org/2000/svg">
<path opacity="0.82" d="M39.1378 125.368C12.7136 122.015 -4.01364 107.368 0.834845 92.8978C5.92575 77.8978 32.35 67.839 59.7439 70.6625C58.2894 61.1331 69.9257 52.3096 86.6529 50.3684C103.138 48.4272 120.108 53.7214 125.683 62.7214C124.714 60.0743 120.592 46.6625 135.623 33.6037C150.411 20.8978 173.441 17.5449 178.289 16.839C181.198 7.66254 194.532 0.956657 209.804 0.0743039C227.501 -0.808049 244.714 6.25078 248.35 16.839C274.047 11.7214 302.653 15.9567 318.895 27.4272C332.713 37.1331 335.623 50.5449 326.895 62.1919C337.32 52.4861 357.683 47.3684 377.562 49.4861C397.926 51.6037 413.926 60.7802 417.077 72.4272C418.047 72.0743 439.138 65.7214 459.744 72.4272C474.289 77.192 482.532 86.5449 480.35 96.2508C488.108 90.2508 501.198 88.3096 510.41 90.9567C519.865 93.6037 523.744 101.721 520.835 107.545C509.441 129.78 388.714 132.427 388.714 132.427C388.714 132.427 312.107 134.545 232.107 134.192C156.471 133.839 118.653 131.721 102.411 130.663C76.2287 129.074 54.4106 126.957 39.1378 125.368Z" fill="url(#paint0_linear_12_21)"/>
<defs>
<linearGradient id="paint0_linear_12_21" x1="260.665" y1="0.0337157" x2="260.665" y2="134.263" gradientUnits="userSpaceOnUse">
<stop stop-color="white"/>
<stop offset="0.9949" stop-color="#DBEFF9"/>
</linearGradient>
</defs>
</svg>
