<svg width="357" height="117" viewBox="0 0 357 117" fill="none" xmlns="http://www.w3.org/2000/svg">
<path opacity="0.92" d="M329.931 108.964C347.87 105.964 359.507 93.4347 356.113 80.7288C352.719 67.67 334.537 59.0229 315.87 61.4935C316.84 53.1994 308.84 45.6111 297.446 43.8464C286.052 42.2582 274.658 46.8464 270.78 54.6111C271.507 52.317 274.416 40.67 263.992 29.3758C253.81 18.2582 238.052 15.4347 234.901 14.7288C232.961 6.78761 223.749 0.964085 213.325 0.0817323C201.204 -0.800621 189.325 5.55231 186.901 14.7288C169.204 10.1405 149.81 14.0229 138.658 23.9053C129.204 32.3759 127.264 44.0229 133.325 54.2582C126.052 45.7876 112.234 41.3759 98.6584 43.1406C84.5978 44.9053 73.6887 53.0229 71.5069 63.0817C70.7796 62.9053 56.4766 57.2582 42.416 63.0817C32.4766 67.1405 26.9008 75.4347 28.3554 83.7288C23.022 78.6111 14.0523 76.8464 7.74932 79.1405C1.44629 81.4347 -1.46287 88.4935 0.718953 93.6111C8.47653 112.846 91.1432 115.141 91.1432 115.141C91.1432 115.141 143.507 116.905 198.295 116.729C249.931 116.552 275.871 114.611 287.022 113.729C304.477 112.141 319.264 110.376 329.931 108.964Z" fill="url(#paint0_linear_12_22)"/>
<defs>
<linearGradient id="paint0_linear_12_22" x1="178.186" y1="0.0411439" x2="178.186" y2="116.676" gradientUnits="userSpaceOnUse">
<stop stop-color="white"/>
<stop offset="0.9949" stop-color="#DBEFF9"/>
</linearGradient>
</defs>
</svg>
