<svg width="800" height="269" viewBox="0 0 800 269" fill="none" xmlns="http://www.w3.org/2000/svg">
<path opacity="0.68" d="M60.0368 250.764C19.552 243.882 -6.38739 214.941 1.37018 185.823C9.12776 156 49.855 135.706 91.552 141.353C89.1278 122.117 107.067 104.647 132.764 100.764C158.219 96.882 183.916 107.47 192.4 125.47C190.946 120.176 184.4 93.3526 207.916 67.235C230.704 41.6467 265.855 34.9408 273.37 33.7055C277.976 15.5291 298.097 1.76436 321.855 0.176125C349.007 -1.76505 375.431 12.5291 381.007 33.7055C420.522 23.2938 464.158 32.1173 489.128 54.882C510.219 74.2938 514.582 100.941 501.249 124.588C517.491 105.176 548.522 94.9408 578.825 98.9997C610.097 103.235 634.825 121.764 639.431 144.882C640.885 144.353 673.37 131.47 704.885 144.882C727.188 154.411 739.794 173.294 736.401 192.529C748.279 180.706 768.401 176.823 782.461 181.941C796.764 187.235 802.825 203.647 798.461 215.117C781.007 259.588 595.794 264.882 595.794 264.882C595.794 264.882 478.461 268.941 355.794 268.411C239.916 267.882 181.976 263.47 157.007 261.353C117.007 258 83.552 253.941 60.0368 250.764Z" fill="url(#paint0_linear_12_20)"/>
<defs>
<linearGradient id="paint0_linear_12_20" x1="399.916" y1="-0.03564" x2="399.916" y2="268.411" gradientUnits="userSpaceOnUse">
<stop stop-color="white"/>
<stop offset="0.9949" stop-color="#DBEFF9"/>
</linearGradient>
</defs>
</svg>
