<svg width="1920" height="1080" viewBox="0 0 1920 1080" fill="none" xmlns="http://www.w3.org/2000/svg">
<g clip-path="url(#clip0_12_17)">
<path d="M1920 0H0V804.706H1920V0Z" fill="url(#paint0_linear_12_17)"/>
<path opacity="0.79" d="M444.849 670.412C426.182 667.941 414.061 657.176 417.697 646.412C421.333 635.471 440.242 627.882 459.636 630C458.424 622.941 466.909 616.412 478.788 615C490.667 613.588 502.545 617.471 506.424 624.177C505.697 622.235 502.788 612.353 513.455 602.647C524.121 593.294 540.364 590.824 543.758 590.294C545.939 583.588 555.152 578.471 566.303 577.941C578.909 577.235 591.03 582.529 593.697 590.294C612.121 586.412 632.242 589.765 643.879 598.059C653.576 605.118 655.758 615 649.455 623.647C656.97 616.412 671.273 612.706 685.333 614.294C699.879 615.882 711.273 622.588 713.455 631.235C714.182 631.059 729.212 626.294 743.758 631.235C754.182 634.765 760 641.647 758.303 648.706C763.879 644.294 773.091 642.882 779.636 644.824C786.182 646.765 789.091 652.765 786.909 657C778.909 673.412 693.091 675.353 693.091 675.353C693.091 675.353 638.545 676.941 581.818 676.588C528 676.412 501.091 674.824 489.697 673.941C471.273 673.059 455.758 671.471 444.849 670.412Z" fill="url(#paint1_linear_12_17)"/>
<path opacity="0.79" d="M29.0907 621.529C10.4241 619.059 -1.69715 608.294 1.93921 597.529C5.57558 586.588 24.4847 579 43.8786 581.118C42.6665 574.059 51.1513 567.529 63.0301 566.118C74.9089 564.706 86.7877 568.588 90.6665 575.294C89.9392 573.353 87.0301 563.471 97.6968 553.765C108.363 544.412 124.606 541.941 128 541.412C130.182 534.706 139.394 529.588 150.545 529.059C163.151 528.353 175.273 533.647 177.939 541.412C196.363 537.529 216.485 540.882 228.121 549.177C237.818 556.235 240 566.118 233.697 574.765C241.212 567.529 255.515 563.824 269.576 565.412C284.121 567 295.515 573.706 297.697 582.353C298.424 582.176 313.454 577.412 328 582.353C338.424 585.882 344.242 592.765 342.545 599.824C348.121 595.412 357.333 594 363.879 595.941C370.424 597.882 373.333 603.882 371.151 608.118C363.151 624.529 277.333 626.471 277.333 626.471C277.333 626.471 222.788 628.059 166.06 627.706C112.242 627.529 85.3331 625.941 73.9392 625.059C55.515 624.177 39.9998 622.765 29.0907 621.529Z" fill="url(#paint2_linear_12_17)"/>
<path opacity="0.79" d="M1293.33 602.294C1274.67 599.824 1262.55 589.059 1266.18 578.294C1269.82 567.353 1288.73 559.765 1308.12 561.882C1306.91 554.824 1315.39 548.294 1327.27 546.882C1339.15 545.471 1351.03 549.353 1354.91 556.059C1354.18 554.118 1351.27 544.235 1361.94 534.529C1372.61 525.176 1388.85 522.706 1392.24 522.176C1394.42 515.471 1403.64 510.353 1414.79 509.824C1427.39 509.118 1439.52 514.412 1442.18 522.176C1460.61 518.294 1480.73 521.647 1492.36 529.941C1502.06 537 1504.24 546.882 1497.94 555.529C1505.45 548.294 1519.76 544.588 1533.82 546.176C1548.36 547.765 1559.76 554.471 1561.94 563.118C1562.67 562.941 1577.7 558.176 1592.24 563.118C1602.67 566.647 1608.48 573.529 1606.79 580.588C1612.36 576.176 1621.58 574.765 1628.12 576.706C1634.67 578.647 1637.58 584.647 1635.39 588.882C1627.39 605.294 1541.58 607.235 1541.58 607.235C1541.58 607.235 1487.03 608.824 1430.3 608.471C1376.48 608.294 1349.58 606.706 1338.18 605.824C1319.76 604.941 1304.48 603.353 1293.33 602.294Z" fill="url(#paint3_linear_12_17)"/>
<path opacity="0.79" d="M1059.39 642.882C1031.76 639.529 1014.06 624.882 1019.15 610.412C1024.48 595.412 1052.36 585.353 1080.97 588.176C1079.27 578.647 1091.64 569.824 1109.09 567.882C1126.55 565.941 1144 571.235 1150.06 580.235C1149.09 577.588 1144.73 564.176 1160.73 551.118C1176.24 538.412 1200.48 535.059 1205.58 534.353C1208.73 525.176 1222.55 518.471 1238.79 517.588C1257.45 516.706 1275.39 523.765 1279.27 534.353C1306.42 529.235 1336.24 533.471 1353.21 544.941C1367.52 554.647 1370.67 568.059 1361.45 579.882C1372.61 570.176 1393.7 565.059 1414.55 567.176C1436.12 569.294 1452.85 578.471 1456 590.118C1456.97 589.765 1479.27 583.412 1500.85 590.118C1516.12 594.882 1524.61 604.235 1522.42 613.941C1530.67 607.941 1544.48 606 1553.94 608.647C1563.88 611.294 1568 619.412 1564.85 625.235C1552.97 647.471 1426.42 650.118 1426.18 650.118C1426.18 650.118 1345.94 652.235 1262.06 651.882C1182.79 651.529 1143.03 649.412 1126.06 648.353C1098.42 646.588 1075.64 644.471 1059.39 642.882Z" fill="url(#paint4_linear_12_17)"/>
<path d="M1920 669.882C1911.27 662.294 1902.55 654.882 1894.06 647.294C1894.3 649.059 1896.48 668.824 1881.7 682.765C1868.36 695.294 1851.64 693.176 1849.21 692.824C1844.12 693.176 1813.58 695.118 1791.76 672.529C1783.27 663.706 1778.91 654 1776.73 647.294L1736.73 670.059C1701.82 636.882 1655.52 598.941 1597.09 563.824C1556.85 539.824 1518.79 521.824 1484.85 508.235C1472.73 530.647 1440 583.059 1375.27 619.412C1313.7 654 1256 655.588 1230.79 654.882C1223.27 652.941 1208.73 648 1195.88 634.588C1189.82 628.412 1185.94 622.059 1183.52 616.941C1163.15 639.706 1129.94 671.647 1081.21 697.765C1023.03 729.176 897.212 745.588 881.697 733.235C860.849 716.294 861.576 690.529 861.818 687.706C841.939 705.353 821.818 723.176 801.939 740.824C773.576 717.706 735.515 691.059 687.273 667.588C643.636 646.235 603.152 633 570.182 624.706C541.576 646.765 453.576 710.647 348.364 723.353C300.606 729.176 246.303 741.882 221.333 710.647C201.697 686.471 209.212 649.059 213.818 632.294C175.273 652.765 133.818 678.353 91.6364 710.647C78.5455 720.706 65.9394 730.941 54.303 741C40 737.824 0.969697 718.588 0.969697 718.588L0 861.706C0 861.706 1274.18 856.765 1920 854.294" fill="url(#paint5_linear_12_17)"/>
<path d="M0 692.294C9.69697 686.294 19.3939 680.118 29.3333 674.118C29.0909 675.353 26.9091 689.118 41.4545 698.824C54.5455 707.471 70.7879 706.059 72.9697 705.882C78.0606 706.235 107.636 707.471 128.727 691.765C136.97 685.588 141.091 678.882 143.273 674.118C156.121 679.412 169.212 684.706 182.061 690C216 666.706 261.091 640.235 317.818 615.882C356.848 599.118 393.939 586.588 426.909 577.059C438.788 592.765 470.545 629.294 533.576 654.706C593.455 678.882 649.455 679.941 674.182 679.412C681.455 678 695.758 674.647 708.121 665.294C713.939 660.882 717.818 656.471 720.242 652.941C739.879 668.824 772.364 691.059 819.636 709.412C876.121 731.294 998.545 742.941 1013.58 734.118C1033.7 722.294 1032.97 704.294 1032.97 702.353L1091.15 739.412C1118.79 723.353 1155.88 704.647 1202.67 688.235C1245.09 673.235 1284.36 664.059 1316.61 658.235C1344.48 673.588 1430.06 718.235 1532.36 727.059C1578.91 731.118 1631.51 740.118 1656 718.235C1674.91 701.294 1667.64 675.353 1663.27 663.529C1700.85 677.824 1741.09 695.647 1782.06 718.235C1794.91 725.294 1807.03 732.353 1818.42 739.412C1832.48 737.118 1851.15 732.882 1870.3 723.706C1890.67 714 1920 705.706 1920.24 705.353V824.118L0 818.824" fill="url(#paint6_linear_12_17)"/>
<path d="M1.21212 737.471C47.7576 722.294 106.182 707.471 174.545 699.353C369.697 676.059 503.03 724.059 720 762.353C822.545 780.353 962.909 790.235 1243.64 810C1541.82 831 1920 846.353 1920 846.353V914.118C1920 914.118 30.7879 974.471 0 980.118L1.21212 737.471Z" fill="url(#paint7_linear_12_17)"/>
<path d="M1.21191 799.235C170.666 836.118 464.727 893.824 810.909 841.765C847.515 836.294 834.909 837.176 900.606 825.882C1219.39 770.824 1920 790.059 1920 790.059C1920 790.059 1920 960.353 1920 959.118C1920 957.882 617.454 1142.47 4.12101 880.412C0.242217 821.824 3.63616 874.765 1.69676 810C1.45434 806.647 1.45434 803.118 1.21191 799.235Z" fill="url(#paint8_linear_12_17)"/>
<path d="M1920 883.588C1637.33 908.294 1318.55 925.059 969.212 925.235C613.576 925.412 289.212 908.647 2.42432 883.588V1080.18H1920V883.588Z" fill="url(#paint9_linear_12_17)"/>
</g>
<defs>
<linearGradient id="paint0_linear_12_17" x1="960" y1="-0.0481994" x2="960" y2="804.653" gradientUnits="userSpaceOnUse">
<stop stop-color="#0088BC"/>
<stop offset="0.9949" stop-color="#D5EEF1"/>
</linearGradient>
<linearGradient id="paint1_linear_12_17" x1="602.352" y1="578.012" x2="602.352" y2="676.888" gradientUnits="userSpaceOnUse">
<stop stop-color="white"/>
<stop offset="0.9949" stop-color="#DBEFF9"/>
</linearGradient>
<linearGradient id="paint2_linear_12_17" x1="186.666" y1="529.235" x2="186.666" y2="628.112" gradientUnits="userSpaceOnUse">
<stop stop-color="white"/>
<stop offset="0.9949" stop-color="#DBEFF9"/>
</linearGradient>
<linearGradient id="paint3_linear_12_17" x1="1450.98" y1="509.894" x2="1450.98" y2="608.771" gradientUnits="userSpaceOnUse">
<stop stop-color="white"/>
<stop offset="0.9949" stop-color="#DBEFF9"/>
</linearGradient>
<linearGradient id="paint4_linear_12_17" x1="1291.98" y1="517.588" x2="1291.98" y2="651.812" gradientUnits="userSpaceOnUse">
<stop stop-color="white"/>
<stop offset="0.9949" stop-color="#DBEFF9"/>
</linearGradient>
<linearGradient id="paint5_linear_12_17" x1="960" y1="508.182" x2="960" y2="861.794" gradientUnits="userSpaceOnUse">
<stop stop-color="#ADD1EF"/>
<stop offset="0.9949" stop-color="#4DB3E6"/>
</linearGradient>
<linearGradient id="paint6_linear_12_17" x1="960" y1="577.006" x2="960" y2="824.047" gradientUnits="userSpaceOnUse">
<stop stop-color="#BACFEB"/>
<stop offset="1" stop-color="#5783C3"/>
</linearGradient>
<linearGradient id="paint7_linear_12_17" x1="960" y1="693.229" x2="960" y2="980.029" gradientUnits="userSpaceOnUse">
<stop stop-color="#88C03F"/>
<stop offset="0.9667" stop-color="#5C892A"/>
</linearGradient>
<linearGradient id="paint8_linear_12_17" x1="960.63" y1="786.812" x2="960.63" y2="1021.02" gradientUnits="userSpaceOnUse">
<stop stop-color="#88C03F"/>
<stop offset="0.9974" stop-color="#48701F"/>
</linearGradient>
<linearGradient id="paint9_linear_12_17" x1="961.212" y1="883.553" x2="961.212" y2="1080.05" gradientUnits="userSpaceOnUse">
<stop stop-color="#8DC63F"/>
<stop offset="0.9693" stop-color="#61823E"/>
</linearGradient>
<clipPath id="clip0_12_17">
<rect width="1920" height="1080" fill="white"/>
</clipPath>
</defs>
</svg>
